<svg width="20" height="20" viewBox="0 0 20 20" fill="none" xmlns="http://www.w3.org/2000/svg">
<path d="M9.29292 10.4584L8.93951 10.0907L8.34216 9.46914C8.34211 9.46909 8.34206 9.46904 8.34201 9.46898C8.2042 9.32581 8.0152 9.24318 7.81651 9.23924C7.61781 9.2353 7.42567 9.31039 7.2823 9.44801L9.29292 10.4584ZM9.29292 10.4584L9.65355 10.0977M9.29292 10.4584L9.65355 10.0977M9.65355 10.0977L12.5636 7.18773L12.5637 7.18761C12.6333 7.11792 12.716 7.06263 12.807 7.02491C12.8981 6.98719 12.9956 6.96777 13.0942 6.96777C13.1927 6.96777 13.2903 6.98719 13.3813 7.02491C13.4723 7.06263 13.555 7.11792 13.6247 7.18761L13.6247 7.18767C13.7653 7.32832 13.8443 7.51905 13.8443 7.71792C13.8443 7.91679 13.7653 8.10752 13.6247 8.24816C13.6247 8.24817 13.6247 8.24817 13.6247 8.24817L10.3251 11.5486C10.3249 11.5488 10.3247 11.549 10.3245 11.5492C10.0498 11.8218 9.67875 11.9754 9.29167 11.9767H9.26665C9.07276 11.9725 8.8816 11.93 8.70419 11.8516C8.52548 11.7726 8.36432 11.6587 8.23015 11.5167L8.23016 11.5167L8.22717 11.5135L7.26134 10.5085L7.2613 10.5085M9.65355 10.0977L7.2613 10.5085M7.2613 10.5085C7.19304 10.4375 7.13944 10.3537 7.10355 10.262C7.06767 10.1703 7.0502 10.0724 7.05215 9.97391C7.0541 9.87543 7.07543 9.7783 7.11492 9.68806C7.15438 9.59789 7.21121 9.51637 7.28216 9.44814L7.2613 10.5085Z" fill="#191632" stroke="#191632"/>
<path d="M10.0007 19.5H9.99985C9.89495 19.5 9.79121 19.4781 9.69535 19.4355L9.69284 19.4344C9.55276 19.3731 7.62756 18.5006 5.74583 16.8793C3.85757 15.2524 2.09082 12.9411 2.09082 9.99999L2.09082 6.03916L2.09082 6.03862C2.0899 5.18148 2.35916 4.34586 2.86035 3.65052C3.36153 2.95518 4.06913 2.4355 4.88258 2.16534L4.88313 2.16516L9.76113 0.538879C9.7613 0.538821 9.76148 0.538764 9.76165 0.538706C9.91645 0.487645 10.0836 0.487647 10.2383 0.538712C10.2385 0.538768 10.2387 0.538823 10.2389 0.538879L15.1169 2.16516L15.1173 2.16532C15.9307 2.43558 16.6383 2.9553 17.1395 3.65063C17.6407 4.34597 17.91 5.18156 17.9092 6.03869V6.03916V9.99999C17.9092 13.3879 16.1031 15.7148 14.2123 17.2299C12.316 18.7495 10.3761 19.4152 10.2373 19.4616L10.2372 19.4617C10.161 19.4872 10.0811 19.5001 10.0007 19.5ZM10.1581 2.09316L9.99999 2.04044L9.84185 2.09316L5.35782 3.58811C5.35778 3.58813 5.35773 3.58814 5.35768 3.58816C4.84321 3.75955 4.39571 4.08848 4.0786 4.52836C3.76146 4.96828 3.59081 5.49685 3.59082 6.03916C3.59082 6.03917 3.59082 6.03917 3.59082 6.03918V9.99999C3.59082 12.1709 4.83176 13.9498 6.18534 15.2489C7.54534 16.5541 9.08541 17.4402 9.83257 17.8306L10.0403 17.9392L10.2567 17.8489C11.0157 17.5323 12.5381 16.7996 13.8779 15.5424C15.2235 14.2796 16.4092 12.4621 16.4092 9.99999V6.03918C16.4092 6.03917 16.4092 6.03917 16.4092 6.03916C16.4092 5.49685 16.2385 4.96828 15.9214 4.52836C15.6043 4.08848 15.1568 3.75955 14.6423 3.58816C14.6423 3.58814 14.6422 3.58813 14.6422 3.58811L10.1581 2.09316Z" fill="#191632" stroke="#191632"/>
</svg>
