<svg width="24" height="24" viewBox="0 0 24 24" fill="none" xmlns="http://www.w3.org/2000/svg">
<path fill-rule="evenodd" clip-rule="evenodd" d="M14.446 2.86781C15.2106 2.55898 16.0301 2.40002 16.8578 2.40002C17.6854 2.40002 18.5049 2.55898 19.2695 2.86781C20.034 3.17659 20.7286 3.62913 21.3136 4.1996C21.8988 4.76989 22.3634 5.44727 22.6801 6.19247C22.9969 6.93781 23.16 7.73669 23.16 8.54348C23.16 9.35026 22.9969 10.1491 22.6801 10.8945C22.3633 11.6397 21.899 12.3169 21.3137 12.8872L12.7451 21.2399C12.3666 21.6089 11.7529 21.6089 11.3743 21.2399L2.80572 12.8872C1.62392 11.7352 0.959991 10.1727 0.959991 8.54348C0.959991 6.91426 1.62392 5.35178 2.80572 4.19976C3.98752 3.04773 5.59038 2.40053 7.26169 2.40053C8.93301 2.40053 10.5359 3.04773 11.7177 4.19976L12.0597 4.5332L12.4016 4.19991C12.9867 3.62937 13.6815 3.17661 14.446 2.86781ZM16.8578 4.28979C16.2848 4.28979 15.7174 4.39983 15.1881 4.61364C14.6587 4.82745 14.1778 5.14082 13.7728 5.53586L12.7451 6.53759C12.3666 6.90659 11.7529 6.90659 11.3743 6.53759L10.3469 5.53602C9.52863 4.73839 8.41886 4.29029 7.26169 4.29029C6.10453 4.29029 4.99476 4.73839 4.17652 5.53602C3.35827 6.33365 2.89859 7.41546 2.89859 8.54348C2.89859 9.67149 3.35827 10.7533 4.17652 11.5509L12.0597 19.2355L19.9429 11.5509C20.3482 11.1561 20.6698 10.6871 20.8892 10.1711C21.1085 9.65509 21.2214 9.10202 21.2214 8.54348C21.2214 7.98493 21.1085 7.43186 20.8892 6.91586C20.6698 6.39986 20.3484 5.93103 19.9431 5.53618C19.538 5.14113 19.0568 4.82745 18.5274 4.61364C17.9981 4.39983 17.4307 4.28979 16.8578 4.28979Z" fill="white"/>
<path d="M21.3136 4.1996C20.7286 3.62913 20.034 3.17659 19.2695 2.86781C18.5049 2.55898 17.6854 2.40002 16.8578 2.40002C16.0301 2.40002 15.2106 2.55898 14.446 2.86781C13.6815 3.17661 12.9867 3.62937 12.4016 4.19991M21.3136 4.1996V4.1996ZM21.3136 4.1996C21.8988 4.76989 22.3634 5.44727 22.6801 6.19247C22.9969 6.93781 23.16 7.73669 23.16 8.54348C23.16 9.35026 22.9969 10.1491 22.6801 10.8945C22.3633 11.6397 21.899 12.3169 21.3137 12.8872M21.3137 12.8872V12.8872ZM21.3137 12.8872L12.7451 21.2399C12.3666 21.6089 11.7529 21.6089 11.3743 21.2399L2.80572 12.8872C1.62392 11.7352 0.959991 10.1727 0.959991 8.54348C0.959991 6.91426 1.62392 5.35178 2.80572 4.19976C3.98752 3.04773 5.59038 2.40053 7.26169 2.40053C8.93301 2.40053 10.5359 3.04773 11.7177 4.19976L12.0597 4.5332L12.4016 4.19991M12.4016 4.19991V4.19991ZM15.1881 4.61364C15.7174 4.39983 16.2848 4.28979 16.8578 4.28979C17.4307 4.28979 17.9981 4.39983 18.5274 4.61364C19.0568 4.82745 19.538 5.14113 19.9431 5.53618C20.3484 5.93103 20.6698 6.39986 20.8892 6.91586C21.1085 7.43186 21.2214 7.98493 21.2214 8.54348C21.2214 9.10202 21.1085 9.65509 20.8892 10.1711C20.6698 10.6871 20.3482 11.1561 19.9429 11.5509L12.0597 19.2355L4.17652 11.5509C3.35827 10.7533 2.89859 9.67149 2.89859 8.54348C2.89859 7.41546 3.35827 6.33365 4.17652 5.53602C4.99476 4.73839 6.10453 4.29029 7.26169 4.29029C8.41886 4.29029 9.52863 4.73839 10.3469 5.53602L11.3743 6.53759C11.7529 6.90659 12.3666 6.90659 12.7451 6.53759L13.7728 5.53586C14.1778 5.14082 14.6587 4.82744 15.1881 4.61364Z" stroke="white" stroke-width="0.1" stroke-linecap="round" stroke-linejoin="round"/>
</svg>
