<svg width="20" height="20" viewBox="0 0 20 20" fill="none" xmlns="http://www.w3.org/2000/svg">
<path d="M15.8182 8.74687C15.3239 8.74687 14.9231 9.14761 14.9231 9.64197V13.9234C14.9231 13.9435 14.885 13.9832 14.8605 13.9832H8.07564V12.136C8.07564 11.8615 7.90584 11.6698 7.66273 11.6698C7.56969 11.6698 7.47588 11.6989 7.38396 11.7562L3.08656 14.432C2.92929 14.5299 2.83916 14.6772 2.83911 14.8361C2.83911 14.9942 2.92862 15.1406 3.08473 15.2379L7.38387 17.9136C7.47593 17.9709 7.56969 18 7.66273 18C7.90584 18 8.07564 17.8083 8.07564 17.5338V15.7734H14.8605C15.8648 15.7734 16.7133 14.9262 16.7133 13.9234V9.64197C16.7133 9.14761 16.3126 8.74687 15.8182 8.74687Z" fill="#191632"/>
<path d="M16.9155 4.76213L12.6164 2.08642C12.5243 2.02909 12.4305 2 12.3375 2C12.0944 2 11.9246 2.19168 11.9246 2.46617V4.22664H5.13973C4.13543 4.22664 3.28693 5.07385 3.28693 6.07662V10.358C3.28693 10.8524 3.68766 11.2531 4.18202 11.2531C4.67638 11.2531 5.07712 10.8524 5.07712 10.358V6.07662C5.07712 6.05653 5.1152 6.01683 5.13973 6.01683H11.9246V7.86404C11.9246 8.13847 12.0944 8.33016 12.3375 8.33016C12.4305 8.33016 12.5243 8.30111 12.6163 8.24383L16.9137 5.56798C17.0709 5.47006 17.1611 5.32277 17.1611 5.16394C17.1611 5.00582 17.0716 4.85943 16.9155 4.76213Z" fill="#191632"/>
</svg>
