<svg width="21" height="21" viewBox="0 0 21 21" fill="none" xmlns="http://www.w3.org/2000/svg">
<path d="M3.154 20.2784C2.49311 20.2784 1.85929 20.0158 1.39197 19.5485C0.924647 19.0812 0.662109 18.4474 0.662109 17.7865V2.83515C0.662109 2.17426 0.924647 1.54044 1.39197 1.07312C1.85929 0.605799 2.49311 0.343262 3.154 0.343262L18.1053 0.343262C18.7662 0.343262 19.4 0.605799 19.8674 1.07312C20.3347 1.54044 20.5972 2.17426 20.5972 2.83515V17.7865C20.5972 18.4474 20.3347 19.0812 19.8674 19.5485C19.4 20.0158 18.7662 20.2784 18.1053 20.2784H3.154ZM13.2412 6.81843L8.13777 11.9218V8.47305C8.13777 8.30783 8.07214 8.14937 7.95531 8.03254C7.83848 7.91571 7.68002 7.85008 7.5148 7.85008C7.34958 7.85008 7.19112 7.91571 7.07429 8.03254C6.95746 8.14937 6.89183 8.30783 6.89183 8.47305V13.4257C6.89183 13.5909 6.95746 13.7494 7.07429 13.8662C7.19112 13.983 7.34958 14.0486 7.5148 14.0486H12.4674C12.6327 14.0486 12.7911 13.983 12.9079 13.8662C13.0248 13.7494 13.0904 13.5909 13.0904 13.4257C13.0904 13.2605 13.0248 13.102 12.9079 12.9852C12.7911 12.8683 12.6327 12.8027 12.4674 12.8027H9.01866L14.122 7.69932C14.1815 7.64185 14.229 7.57311 14.2617 7.4971C14.2943 7.4211 14.3115 7.33935 14.3122 7.25663C14.3129 7.17392 14.2972 7.09188 14.2658 7.01532C14.2345 6.93876 14.1883 6.8692 14.1298 6.81071C14.0713 6.75222 14.0017 6.70596 13.9252 6.67464C13.8486 6.64331 13.7666 6.62755 13.6838 6.62827C13.6011 6.62899 13.5194 6.64618 13.4434 6.67882C13.3674 6.71147 13.2986 6.75893 13.2412 6.81843Z" fill="#0D094E"/>
</svg>
