<svg width="21" height="20" viewBox="0 0 21 20" fill="none" xmlns="http://www.w3.org/2000/svg">
<path d="M0.957031 18.6833C0.957031 19.1095 1.30137 19.4539 1.72759 19.4539H19.4504C19.8766 19.4539 20.221 19.1095 20.221 18.6833V8.56975H0.957031V18.6833ZM19.4504 1.9237H15.405V0.382581C15.405 0.276629 15.3183 0.189941 15.2123 0.189941H13.8639C13.7579 0.189941 13.6712 0.276629 13.6712 0.382581V1.9237H7.50677V0.382581C7.50677 0.276629 7.42008 0.189941 7.31413 0.189941H5.96565C5.8597 0.189941 5.77301 0.276629 5.77301 0.382581V1.9237H1.72759C1.30137 1.9237 0.957031 2.26804 0.957031 2.69425V6.93232H20.221V2.69425C20.221 2.26804 19.8766 1.9237 19.4504 1.9237Z" fill="#0D094E"/>
</svg>
