<svg width="19" height="20" viewBox="0 0 19 20" fill="none" xmlns="http://www.w3.org/2000/svg">
<path d="M9.68133 0.929199C14.8061 0.929199 18.9486 5.08093 18.9486 10.1965C18.9486 15.3213 14.8061 19.4637 9.68133 19.4637C4.5658 19.4637 0.414062 15.3213 0.414062 10.1965C0.414062 5.08093 4.5658 0.929199 9.68133 0.929199ZM9.35697 5.49796C8.97702 5.49796 8.66193 5.80378 8.66193 6.19301V10.873C8.66193 11.1139 8.79167 11.3363 9.00482 11.4661L12.6376 13.6346C12.7488 13.6995 12.8693 13.7366 12.999 13.7366C13.2307 13.7366 13.4624 13.6161 13.5921 13.3937C13.7867 13.0693 13.6848 12.643 13.3512 12.4391L10.052 10.4745V6.19301C10.052 5.80378 9.73693 5.49796 9.35697 5.49796Z" fill="#0D094E"/>
</svg>
