<svg width="25" height="27" viewBox="0 0 25 27" fill="none" xmlns="http://www.w3.org/2000/svg">
<path fill-rule="evenodd" clip-rule="evenodd" d="M19.4867 5.89862C19.8935 6.32274 19.8935 7.01036 19.4867 7.43448L6.98666 20.4666C6.57986 20.8908 5.92031 20.8908 5.51352 20.4666C5.10672 20.0425 5.10672 19.3549 5.51352 18.9308L18.0135 5.89862C18.4203 5.47451 19.0799 5.47451 19.4867 5.89862Z" fill="#191632"/>
<path fill-rule="evenodd" clip-rule="evenodd" d="M5.51352 5.89862C5.92031 5.47451 6.57986 5.47451 6.98666 5.89862L19.4867 18.9308C19.8935 19.3549 19.8935 20.0425 19.4867 20.4666C19.0799 20.8908 18.4203 20.8908 18.0135 20.4666L5.51352 7.43448C5.10672 7.01036 5.10672 6.32274 5.51352 5.89862Z" fill="#191632"/>
</svg>
