<svg width="14" height="17" viewBox="0 0 14 17" fill="none" xmlns="http://www.w3.org/2000/svg">
<path d="M13.0617 2.16274L9.10438 0.353217H9.05821C9.02751 0.348984 8.99658 0.348984 8.96587 0.353217H8.81418H8.72843H8.68226L4.93599 2.1175L1.18971 0.353217C1.09052 0.308351 0.984984 0.296439 0.881785 0.318461C0.778585 0.340482 0.680673 0.395808 0.596108 0.479884C0.510865 0.563137 0.441287 0.673018 0.393119 0.800448C0.344952 0.927878 0.319578 1.0692 0.319094 1.21274V13.8794C0.318737 14.0691 0.361846 14.2541 0.442327 14.4084C0.522808 14.5626 0.63659 14.6782 0.767592 14.7389L4.72493 16.5485C4.85779 16.6079 5.00099 16.6079 5.13385 16.5485L8.89332 14.8294L12.6396 16.5937C12.7096 16.6067 12.7806 16.6067 12.8507 16.5937C12.9886 16.5964 13.1232 16.5359 13.2332 16.4218C13.3184 16.3386 13.388 16.2287 13.4362 16.1012C13.4844 15.9738 13.5097 15.8325 13.5102 15.6889V3.02227C13.5106 2.83259 13.4675 2.64755 13.387 2.49332C13.3065 2.33908 13.1927 2.22344 13.0617 2.16274ZM4.27643 14.4313L1.63821 13.228V2.47036L4.27643 3.6737V14.4313ZM8.23377 13.228L5.59554 14.4313V3.6737L8.23377 2.47036V13.228ZM12.1911 14.4313L9.55288 13.228V2.47036L12.1911 3.6737V14.4313Z" fill="white"/>
</svg>
