<svg width="20" height="20" viewBox="0 0 20 20" fill="none" xmlns="http://www.w3.org/2000/svg">
<path d="M10.44 13.2C10.44 13.64 10.08 14 9.63999 14H1.8C1.36 14 1 13.64 1 13.2C1 12.76 1.36 12.4 1.8 12.4H9.63999C10.08 12.4 10.44 12.76 10.44 13.2ZM18.6 12.4H17.92C17.48 12.4 17.12 12.76 17.12 13.2C17.12 13.64 17.48 14 17.92 14H18.6C19.04 14 19.4 13.64 19.4 13.2C19.4 12.76 19.04 12.4 18.6 12.4ZM3.86001 6.37998C3.86001 5.05998 4.94001 4 6.26001 4C7.58001 4 8.66001 5.07998 8.66001 6.37998C8.66001 7.67998 7.58001 8.76001 6.26001 8.76001C4.94001 8.76001 3.86001 7.69998 3.86001 6.37998ZM5.46001 6.37998C5.46001 6.81998 5.82001 7.16001 6.26001 7.16001C6.70001 7.16001 7.06001 6.79998 7.06001 6.37998C7.06001 5.95998 6.70001 5.6 6.26001 5.6C5.82001 5.6 5.46001 5.95998 5.46001 6.37998ZM16.08 13.22C16.08 14.54 15 15.6 13.68 15.6C12.36 15.6 11.28 14.52 11.28 13.22C11.28 11.92 12.36 10.84 13.68 10.84C15 10.82 16.08 11.9 16.08 13.22ZM14.48 13.22C14.48 12.78 14.12 12.44 13.68 12.44C13.24 12.44 12.88 12.8 12.88 13.22C12.88 13.64 13.24 14 13.68 14C14.12 14 14.48 13.64 14.48 13.22ZM1.8 7.2H2.26001C2.70001 7.2 3.06001 6.84 3.06001 6.4C3.06001 5.96 2.70001 5.6 2.26001 5.6H1.8C1.36 5.6 1 5.96 1 6.4C1 6.84 1.36 7.2 1.8 7.2ZM19.4 6.4C19.4 5.96 19.04 5.6 18.6 5.6H10.46C10.02 5.6 9.66001 5.96 9.66001 6.4C9.66001 6.84 10.02 7.2 10.46 7.2H18.6C19.04 7.2 19.4 6.84 19.4 6.4Z" fill="#191632"/>
</svg>
