<svg width="22" height="16" viewBox="0 0 22 16" fill="none" xmlns="http://www.w3.org/2000/svg">
<path d="M21.1481 1.24877C19.8372 0.698935 18.5253 0.489746 17.2141 0.489746C13.0516 0.489408 8.88946 2.5965 4.72697 2.5965C3.68306 2.5965 2.63982 2.46403 1.5959 2.13284C1.47863 2.09567 1.36103 2.07809 1.24613 2.07809C0.664521 2.07809 0.15625 2.52824 0.15625 3.1531V13.8748C0.15625 14.3016 0.400585 14.7061 0.792941 14.8704C2.10383 15.4206 3.41574 15.6297 4.72697 15.6297C8.88946 15.6297 13.0519 13.5226 17.2144 13.5226C18.2583 13.5226 19.3016 13.6551 20.3455 13.9863C20.4628 14.0235 20.5804 14.0411 20.6953 14.0411C21.2769 14.0411 21.7852 13.5909 21.7852 12.9661V2.2447C21.7848 1.81754 21.5405 1.41335 21.1481 1.24877ZM10.9705 11.304C9.47715 11.304 8.26696 9.8512 8.26696 8.05974C8.26696 6.26795 9.47749 4.81546 10.9705 4.81546C12.4636 4.81546 13.6741 6.26795 13.6741 8.05974C13.6741 9.85187 12.4632 11.304 10.9705 11.304Z" fill="#0D094E"/>
</svg>
