<svg width="24" height="20" viewBox="0 0 24 20" fill="none" xmlns="http://www.w3.org/2000/svg">
<path fill-rule="evenodd" clip-rule="evenodd" d="M14.446 0.867811C15.2106 0.55898 16.0301 0.400024 16.8578 0.400024C17.6854 0.400024 18.5049 0.55898 19.2695 0.867811C20.034 1.17659 20.7286 1.62913 21.3136 2.1996C21.8988 2.76989 22.3634 3.44727 22.6801 4.19247C22.9969 4.93781 23.16 5.73669 23.16 6.54348C23.16 7.35026 22.9969 8.14914 22.6801 8.89448C22.3633 9.63975 21.899 10.3169 21.3137 10.8872L12.7451 19.2399C12.3666 19.6089 11.7529 19.6089 11.3743 19.2399L2.80572 10.8872C1.62392 9.73517 0.959991 8.17269 0.959991 6.54348C0.959991 4.91426 1.62392 3.35178 2.80572 2.19976C3.98752 1.04773 5.59038 0.40053 7.26169 0.40053C8.93301 0.40053 10.5359 1.04773 11.7177 2.19976L12.0597 2.5332L12.4016 2.19991C12.9867 1.62937 13.6815 1.17661 14.446 0.867811ZM16.8578 2.28979C16.2848 2.28979 15.7174 2.39983 15.1881 2.61364C14.6587 2.82745 14.1778 3.14082 13.7728 3.53586L12.7451 4.53759C12.3666 4.90659 11.7529 4.90659 11.3743 4.53759L10.3469 3.53602C9.52863 2.73839 8.41886 2.29029 7.26169 2.29029C6.10453 2.29029 4.99476 2.73839 4.17652 3.53602C3.35827 4.33365 2.89859 5.41546 2.89859 6.54348C2.89859 7.67149 3.35827 8.7533 4.17652 9.55093L12.0597 17.2355L19.9429 9.55093C20.3482 9.15607 20.6698 8.6871 20.8892 8.17109C21.1085 7.65509 21.2214 7.10202 21.2214 6.54348C21.2214 5.98493 21.1085 5.43186 20.8892 4.91586C20.6698 4.39986 20.3484 3.93103 19.9431 3.53618C19.538 3.14113 19.0568 2.82745 18.5274 2.61364C17.9981 2.39983 17.4307 2.28979 16.8578 2.28979Z" fill="white"/>
<path d="M21.3136 2.1996C20.7286 1.62913 20.034 1.17659 19.2695 0.867811C18.5049 0.55898 17.6854 0.400024 16.8578 0.400024C16.0301 0.400024 15.2106 0.55898 14.446 0.867811C13.6815 1.17661 12.9867 1.62937 12.4016 2.19991M21.3136 2.1996V2.1996ZM21.3136 2.1996C21.8988 2.76989 22.3634 3.44727 22.6801 4.19247C22.9969 4.93781 23.16 5.73669 23.16 6.54348C23.16 7.35026 22.9969 8.14914 22.6801 8.89448C22.3633 9.63975 21.899 10.3169 21.3137 10.8872M21.3137 10.8872V10.8872ZM21.3137 10.8872L12.7451 19.2399C12.3666 19.6089 11.7529 19.6089 11.3743 19.2399L2.80572 10.8872C1.62392 9.73517 0.959991 8.17269 0.959991 6.54348C0.959991 4.91426 1.62392 3.35178 2.80572 2.19976C3.98752 1.04773 5.59038 0.40053 7.26169 0.40053C8.93301 0.40053 10.5359 1.04773 11.7177 2.19976L12.0597 2.5332L12.4016 2.19991M12.4016 2.19991V2.19991ZM15.1881 2.61364C15.7174 2.39983 16.2848 2.28979 16.8578 2.28979C17.4307 2.28979 17.9981 2.39983 18.5274 2.61364C19.0568 2.82745 19.538 3.14113 19.9431 3.53618C20.3484 3.93103 20.6698 4.39986 20.8892 4.91586C21.1085 5.43186 21.2214 5.98493 21.2214 6.54348C21.2214 7.10202 21.1085 7.65509 20.8892 8.17109C20.6698 8.6871 20.3482 9.15607 19.9429 9.55093L12.0597 17.2355L4.17652 9.55093C3.35827 8.7533 2.89859 7.67149 2.89859 6.54348C2.89859 5.41546 3.35827 4.33365 4.17652 3.53602C4.99476 2.73839 6.10453 2.29029 7.26169 2.29029C8.41886 2.29029 9.52863 2.73839 10.3469 3.53602L11.3743 4.53759C11.7529 4.90659 12.3666 4.90659 12.7451 4.53759L13.7728 3.53586C14.1778 3.14082 14.6587 2.82744 15.1881 2.61364Z" stroke="white" stroke-width="0.1" stroke-linecap="round" stroke-linejoin="round"/>
</svg>
