<svg width="20" height="20" viewBox="0 0 20 20" fill="none" xmlns="http://www.w3.org/2000/svg">
<path fill-rule="evenodd" clip-rule="evenodd" d="M12.0384 2.38982C12.6756 2.13246 13.3585 2 14.0482 2C14.7379 2 15.4208 2.13246 16.058 2.38982C16.695 2.64713 17.2739 3.02426 17.7614 3.49965C18.2491 3.97488 18.6362 4.53937 18.9002 5.16037C19.1642 5.78149 19.3 6.44722 19.3 7.11954C19.3 7.79186 19.1642 8.4576 18.9002 9.07871C18.6362 9.69977 18.2493 10.264 17.7615 10.7393L10.621 17.6999C10.3056 18.0074 9.79411 18.0074 9.47867 17.6999L2.33815 10.7393C1.35332 9.77929 0.800049 8.47722 0.800049 7.11954C0.800049 5.76187 1.35332 4.4598 2.33815 3.49978C3.32299 2.53976 4.65871 2.00042 6.05147 2.00042C7.44423 2.00042 8.77995 2.53976 9.76478 3.49978L10.0498 3.77765L10.3348 3.49991C10.8223 3.02446 11.4013 2.64716 12.0384 2.38982ZM14.0482 3.5748C13.5707 3.5748 13.0979 3.66651 12.6568 3.84468C12.2157 4.02285 11.8149 4.284 11.4773 4.6132L10.621 5.44798C10.3056 5.75547 9.79411 5.75547 9.47867 5.44798L8.62245 4.61333C7.94058 3.94864 7.01577 3.57522 6.05147 3.57522C5.08716 3.57522 4.16235 3.94864 3.48049 4.61333C2.79862 5.27802 2.41555 6.17953 2.41555 7.11954C2.41555 8.05955 2.79862 8.96107 3.48049 9.62576L10.0498 16.0296L16.6192 9.62576C16.9569 9.29671 17.2249 8.90589 17.4077 8.47589C17.5905 8.04589 17.6845 7.58499 17.6845 7.11954C17.6845 6.65409 17.5905 6.1932 17.4077 5.76319C17.2249 5.33319 16.957 4.94251 16.6193 4.61346C16.2818 4.28426 15.8807 4.02285 15.4396 3.84468C14.9985 3.66651 14.5257 3.5748 14.0482 3.5748Z" fill="#E9AD8B"/>
<path d="M17.7614 3.49965C17.2739 3.02426 16.695 2.64713 16.058 2.38982C15.4208 2.13246 14.7379 2 14.0482 2C13.3585 2 12.6756 2.13246 12.0384 2.38982C11.4013 2.64716 10.8223 3.02446 10.3347 3.49991M17.7614 3.49965V3.49965ZM17.7614 3.49965C18.2491 3.97488 18.6362 4.53937 18.9001 5.16037C19.1642 5.78149 19.3 6.44722 19.3 7.11954C19.3 7.79186 19.1642 8.4576 18.9001 9.07871C18.6362 9.69977 18.2493 10.264 17.7615 10.7393M17.7615 10.7393V10.7393ZM17.7615 10.7393L10.621 17.6999C10.3056 18.0074 9.79411 18.0074 9.47867 17.6999L2.33815 10.7393C1.35332 9.77929 0.800049 8.47722 0.800049 7.11954C0.800049 5.76187 1.35332 4.4598 2.33815 3.49978C3.32299 2.53976 4.65871 2.00042 6.05147 2.00042C7.44423 2.00042 8.77995 2.53976 9.76478 3.49978L10.0498 3.77765L10.3347 3.49991M10.3347 3.49991V3.49991ZM12.6568 3.84468C13.0979 3.66651 13.5707 3.5748 14.0482 3.5748C14.5257 3.5748 14.9985 3.66651 15.4396 3.84468C15.8807 4.02285 16.2818 4.28426 16.6193 4.61346C16.957 4.94251 17.2249 5.33319 17.4077 5.76319C17.5905 6.1932 17.6845 6.65409 17.6845 7.11954C17.6845 7.58499 17.5905 8.04589 17.4077 8.47589C17.2249 8.90589 16.9569 9.29671 16.6192 9.62576L10.0498 16.0296L3.48049 9.62576C2.79862 8.96107 2.41555 8.05955 2.41555 7.11954C2.41555 6.17953 2.79862 5.27802 3.48049 4.61333C4.16235 3.94864 5.08716 3.57522 6.05147 3.57522C7.01577 3.57522 7.94058 3.94864 8.62245 4.61333L9.47867 5.44798C9.79411 5.75547 10.3056 5.75547 10.621 5.44798L11.4773 4.6132C11.8149 4.284 12.2157 4.02285 12.6568 3.84468Z" stroke="#E9AD8B" stroke-width="0.1" stroke-linecap="round" stroke-linejoin="round"/>
</svg>
