<svg xmlns="http://www.w3.org/2000/svg" xmlns:xlink="http://www.w3.org/1999/xlink" width="40" zoomAndPan="magnify" viewBox="0 0 30 30.000001" height="40" preserveAspectRatio="xMidYMid meet" version="1.0"><defs><clipPath id="524797454d"><path d="M 0.484375 0 L 29.515625 0 L 29.515625 29 L 0.484375 29 Z M 0.484375 0 " clip-rule="nonzero"/></clipPath></defs><g clip-path="url(#524797454d)"><path fill="#ffffff" d="M 9.054688 0.179688 C 3.703125 0.421875 0.894531 3.429688 0.664062 8.570312 C 0.484375 12.457031 0.484375 16.574219 0.664062 20.464844 C 0.894531 25.601562 3.703125 28.609375 9.054688 28.855469 C 12.945312 29.03125 17.058594 29.03125 20.949219 28.855469 C 26.085938 28.617188 29.09375 25.8125 29.339844 20.464844 C 29.515625 16.570312 29.515625 12.460938 29.339844 8.570312 C 29.097656 3.332031 26.1875 0.417969 20.949219 0.179688 C 17.058594 0 12.945312 0 9.054688 0.179688 Z M 24.433594 6.816406 C 24.433594 7.773438 23.65625 8.546875 22.699219 8.546875 C 21.742188 8.546875 20.96875 7.773438 20.96875 6.816406 C 20.96875 5.859375 21.742188 5.085938 22.699219 5.085938 C 23.65625 5.085938 24.429688 5.859375 24.433594 6.816406 Z M 15 19.324219 C 12.34375 19.324219 10.191406 17.171875 10.191406 14.515625 C 10.191406 11.859375 12.34375 9.707031 15 9.707031 C 17.65625 9.707031 19.808594 11.859375 19.808594 14.515625 C 19.808594 17.171875 17.65625 19.324219 15 19.324219 Z M 15 7.109375 C 10.910156 7.109375 7.59375 10.425781 7.59375 14.515625 C 7.59375 18.605469 10.910156 21.921875 15 21.921875 C 19.089844 21.921875 22.40625 18.605469 22.40625 14.515625 C 22.40625 10.425781 19.089844 7.109375 15 7.109375 Z M 20.828125 2.773438 C 24.714844 2.953125 26.566406 4.800781 26.742188 8.6875 C 26.917969 12.496094 26.917969 16.535156 26.742188 20.34375 C 26.5625 24.34375 24.613281 26.085938 20.828125 26.257812 C 17.019531 26.429688 12.984375 26.429688 9.171875 26.257812 C 5.386719 26.085938 3.441406 24.34375 3.257812 20.34375 C 3.085938 16.535156 3.085938 12.496094 3.257812 8.6875 C 3.429688 4.902344 5.175781 2.957031 9.171875 2.773438 C 12.980469 2.601562 17.019531 2.601562 20.828125 2.773438 Z M 20.828125 2.773438 " fill-opacity="1" fill-rule="evenodd"/></g></svg>