<?xml version="1.0" standalone="no"?>
<!DOCTYPE svg PUBLIC "-//W3C//DTD SVG 20010904//EN"
 "http://www.w3.org/TR/2001/REC-SVG-20010904/DTD/svg10.dtd">
<svg version="1.0" xmlns="http://www.w3.org/2000/svg"
 width="300.000000pt" height="300.000000pt" viewBox="0 0 300.000000 300.000000"
 preserveAspectRatio="xMidYMid meet">

<g transform="translate(0.000000,300.000000) scale(0.100000,-0.100000)"
fill="#000000" stroke="none">
<path d="M854 2989 c-162 -10 -277 -39 -404 -100 -91 -45 -116 -63 -196 -143
-80 -80 -98 -105 -143 -196 -98 -202 -111 -325 -111 -1050 0 -725 13 -848 111
-1050 45 -91 63 -116 143 -196 80 -80 105 -98 196 -143 202 -98 325 -111 1050
-111 725 0 848 13 1050 111 91 45 116 63 196 143 80 80 98 105 143 196 98 202
111 325 111 1050 0 725 -13 848 -111 1050 -45 91 -63 116 -143 196 -80 80
-105 98 -196 143 -132 64 -238 89 -427 101 -172 11 -1091 11 -1269 -1z m1394
-283 c267 -52 408 -195 459 -468 16 -83 18 -166 18 -738 0 -572 -2 -655 -18
-738 -52 -277 -192 -417 -469 -469 -83 -16 -166 -18 -738 -18 -572 0 -655 2
-738 18 -273 51 -416 192 -468 459 -13 67 -17 186 -21 618 -5 556 3 808 32
929 50 207 191 348 401 397 117 27 268 32 874 29 486 -3 599 -6 668 -19z"/>
<path d="M2225 2464 c-45 -23 -66 -45 -86 -89 -25 -54 -24 -102 4 -155 49 -98
167 -128 258 -67 112 76 100 247 -22 309 -42 22 -114 23 -154 2z"/>
<path d="M1361 2260 c-75 -16 -143 -41 -226 -83 -113 -57 -254 -199 -312 -312
-71 -138 -88 -210 -88 -365 0 -155 17 -227 88 -365 57 -113 199 -255 312 -312
138 -71 210 -88 365 -88 155 0 227 17 365 88 113 57 255 199 312 312 71 138
88 210 88 365 0 155 -17 227 -88 365 -58 113 -199 255 -312 312 -127 65 -202
85 -340 89 -66 2 -140 -1 -164 -6z m254 -275 c98 -25 165 -64 235 -134 200
-201 200 -501 0 -702 -197 -198 -503 -198 -700 0 -200 201 -200 501 0 702 125
126 300 176 465 134z"/>
</g>
</svg>
