<svg width="11" height="12" viewBox="0 0 11 12" fill="none" xmlns="http://www.w3.org/2000/svg">
<path fill-rule="evenodd" clip-rule="evenodd" d="M8.3288 2.45116C8.70032 2.81159 8.99512 3.23951 9.19616 3.71049C9.39728 4.18146 9.50072 4.68626 9.50072 5.19605C9.50072 5.70584 9.39728 6.21063 9.19616 6.68161C8.99512 7.15258 8.70032 7.58051 8.3288 7.94093L5.5 10.6843L2.6712 7.94016C2.29972 7.57973 2.00504 7.15176 1.804 6.6808C1.60295 6.20983 1.49947 5.70504 1.49947 5.19527C1.49947 4.6855 1.60295 4.18072 1.804 3.70975C2.00504 3.23878 2.29972 2.81085 2.6712 2.45038C3.04269 2.08992 3.48371 1.80398 3.96907 1.6089C4.45443 1.41382 4.97465 1.31341 5.5 1.31341C6.02536 1.31341 6.54557 1.41382 7.03094 1.6089C7.51632 1.80398 7.95728 2.08992 8.3288 2.45038V2.45116ZM9.1768 8.76378C9.90408 8.05815 10.3994 7.15907 10.6001 6.18028C10.8007 5.20149 10.6978 4.18693 10.3042 3.26492C9.91064 2.3429 9.24416 1.55484 8.38904 1.00038C7.53384 0.445933 6.52848 0.149994 5.5 0.149994C4.47152 0.149994 3.46614 0.445933 2.61099 1.00038C1.75585 1.55484 1.08935 2.3429 0.695787 3.26492C0.302227 4.18693 0.199275 5.20149 0.399955 6.18028C0.600635 7.15907 1.09593 8.05815 1.8232 8.76378L4.6512 11.5087C4.76264 11.6169 4.89496 11.7027 5.04061 11.7613C5.18625 11.8199 5.34235 11.85 5.5 11.85C5.65766 11.85 5.81376 11.8199 5.9594 11.7613C6.10504 11.7027 6.23736 11.6169 6.3488 11.5087L9.1768 8.76378ZM5.5 6.74859C5.92435 6.74859 6.33131 6.58501 6.63138 6.29386C6.93143 6.0027 7.1 5.60781 7.1 5.19605C7.1 4.78429 6.93143 4.3894 6.63138 4.09823C6.33131 3.80708 5.92435 3.64351 5.5 3.64351C5.07566 3.64351 4.66869 3.80708 4.36863 4.09823C4.06858 4.3894 3.9 4.78429 3.9 5.19605C3.9 5.60781 4.06858 6.0027 4.36863 6.29386C4.66869 6.58501 5.07566 6.74859 5.5 6.74859Z" fill="#191632"/>
</svg>
