<svg width="13" height="14" viewBox="0 0 13 14" fill="none" xmlns="http://www.w3.org/2000/svg">
<path fill-rule="evenodd" clip-rule="evenodd" d="M9.32885 3.45117C9.70037 3.8116 9.99517 4.23952 10.1962 4.7105C10.3973 5.18147 10.5008 5.68627 10.5008 6.19606C10.5008 6.70585 10.3973 7.21064 10.1962 7.68162C9.99517 8.15259 9.70037 8.58052 9.32885 8.94094L6.50005 11.6843L3.67125 8.94016C3.29977 8.57974 3.00509 8.15177 2.80405 7.68081C2.603 7.20984 2.49952 6.70505 2.49952 6.19528C2.49952 5.68551 2.603 5.18073 2.80405 4.70976C3.00509 4.23879 3.29977 3.81085 3.67125 3.45039C4.04274 3.08992 4.48375 2.80399 4.96911 2.60891C5.45448 2.41382 5.9747 2.31342 6.50005 2.31342C7.02541 2.31342 7.54561 2.41382 8.03098 2.60891C8.51637 2.80399 8.95733 3.08992 9.32885 3.45039V3.45117ZM10.1768 9.76379C10.9041 9.05816 11.3994 8.15908 11.6001 7.18029C11.8008 6.2015 11.6978 5.18694 11.3043 4.26492C10.9107 3.34291 10.2442 2.55485 9.38909 2.00039C8.53389 1.44594 7.52853 1.15 6.50005 1.15C5.47157 1.15 4.46618 1.44594 3.61104 2.00039C2.7559 2.55485 2.0894 3.34291 1.69583 4.26492C1.30227 5.18694 1.19932 6.2015 1.4 7.18029C1.60068 8.15908 2.09598 9.05816 2.82325 9.76379L5.65125 12.5087C5.76269 12.6169 5.89501 12.7027 6.04066 12.7613C6.1863 12.8199 6.3424 12.85 6.50005 12.85C6.6577 12.85 6.81381 12.8199 6.95945 12.7613C7.10509 12.7027 7.23741 12.6169 7.34885 12.5087L10.1768 9.76379ZM6.50005 7.7486C6.9244 7.7486 7.33136 7.58502 7.63142 7.29387C7.93148 7.00271 8.10005 6.60782 8.10005 6.19606C8.10005 5.78429 7.93148 5.38941 7.63142 5.09824C7.33136 4.80709 6.9244 4.64352 6.50005 4.64352C6.0757 4.64352 5.66874 4.80709 5.36868 5.09824C5.06862 5.38941 4.90005 5.78429 4.90005 6.19606C4.90005 6.60782 5.06862 7.00271 5.36868 7.29387C5.66874 7.58502 6.0757 7.7486 6.50005 7.7486Z" fill="#191632"/>
</svg>
