<svg width="16" height="23" viewBox="0 0 16 23" fill="none" xmlns="http://www.w3.org/2000/svg">
<path d="M14.0618 5.16274L10.1044 3.35322H10.0582C10.0275 3.34898 9.99661 3.34898 9.96591 3.35322H9.81421H9.72847H9.6823L5.93602 5.1175L2.18975 3.35322C2.09056 3.30835 1.98502 3.29644 1.88182 3.31846C1.77862 3.34048 1.68071 3.39581 1.59615 3.47988C1.5109 3.56314 1.44132 3.67302 1.39316 3.80045C1.34499 3.92788 1.31962 4.0692 1.31913 4.21274V16.8794C1.31878 17.0691 1.36188 17.2541 1.44236 17.4084C1.52285 17.5626 1.63663 17.6782 1.76763 17.7389L5.72497 19.5485C5.85783 19.6079 6.00103 19.6079 6.13389 19.5485L9.89336 17.8294L13.6396 19.5937C13.7097 19.6067 13.7807 19.6067 13.8507 19.5937C13.9886 19.5964 14.1232 19.5359 14.2332 19.4218C14.3185 19.3386 14.3881 19.2287 14.4362 19.1012C14.4844 18.9738 14.5098 18.8325 14.5103 18.6889V6.02227C14.5106 5.83259 14.4675 5.64755 14.387 5.49332C14.3065 5.33908 14.1928 5.22344 14.0618 5.16274ZM5.27647 17.4313L2.63824 16.228V5.47036L5.27647 6.6737V17.4313ZM9.2338 16.228L6.59558 17.4313V6.6737L9.2338 5.47036V16.228ZM13.1911 17.4313L10.5529 16.228V5.47036L13.1911 6.6737V17.4313Z" fill="white"/>
</svg>
