<svg width="16" height="16" viewBox="0 0 16 16" fill="none" xmlns="http://www.w3.org/2000/svg">
<path fill-rule="evenodd" clip-rule="evenodd" d="M15.1381 0.861938C15.3373 1.06116 15.3898 1.36411 15.2692 1.61873L9.26916 14.2854C9.14861 14.5399 8.88118 14.6912 8.60097 14.6634C8.32076 14.6357 8.0882 14.4349 8.0199 14.1617L6.78358 9.21642L1.83831 7.9801C1.56513 7.91181 1.36432 7.67925 1.33657 7.39903C1.30883 7.11882 1.46013 6.85139 1.71461 6.73085L14.3813 0.73085C14.6359 0.61024 14.9388 0.662716 15.1381 0.861938ZM3.9689 7.13838L7.49502 8.01991C7.73388 8.07963 7.92038 8.26613 7.98009 8.50498L8.86162 12.0311L13.2651 2.73493L3.9689 7.13838Z" fill="#191632"/>
</svg>
