<svg width="10" height="10" viewBox="0 0 10 10" fill="none" xmlns="http://www.w3.org/2000/svg">
<path d="M5.41218 0.422242L6.55475 2.49653C6.69757 2.74347 6.93561 2.89163 7.17364 2.99041L9.41118 3.48428C9.79203 3.58306 9.93486 4.02755 9.64921 4.32388L8.12578 6.10184C7.93536 6.29939 7.84014 6.59571 7.88775 6.89204L8.12578 9.26266C8.17339 9.65776 7.79254 9.9047 7.45929 9.75654L5.36457 8.76878C5.12654 8.67 4.84089 8.67 4.60286 8.76878L2.50814 9.75654C2.17489 9.9047 1.79404 9.60837 1.84164 9.26266L2.07968 6.89204C2.12729 6.59571 2.03207 6.34878 1.84164 6.10184L0.318215 4.32388C0.080179 4.02755 0.223 3.58306 0.55625 3.48428L2.79379 2.99041C3.07943 2.94102 3.26986 2.74347 3.41268 2.49653L4.55525 0.422242C4.74568 0.125915 5.22175 0.125915 5.41218 0.422242Z" fill="#EBEBEB"/>
</svg>
