<svg width="19" height="20" viewBox="0 0 19 20" fill="none" xmlns="http://www.w3.org/2000/svg">
<path fill-rule="evenodd" clip-rule="evenodd" d="M8.70833 3.96826C5.64775 3.96826 3.16666 6.3312 3.16666 9.24604C3.16666 12.1609 5.64775 14.5238 8.70833 14.5238C11.7689 14.5238 14.25 12.1609 14.25 9.24604C14.25 6.3312 11.7689 3.96826 8.70833 3.96826ZM1.58333 9.24604C1.58333 5.49839 4.7733 2.46033 8.70833 2.46033C12.6434 2.46033 15.8333 5.49839 15.8333 9.24604C15.8333 12.9937 12.6434 16.0318 8.70833 16.0318C4.7733 16.0318 1.58333 12.9937 1.58333 9.24604Z" fill="#C6C5CD"/>
<path fill-rule="evenodd" clip-rule="evenodd" d="M12.6215 12.9728C12.9306 12.6784 13.4319 12.6784 13.741 12.9728L17.1848 16.2526C17.494 16.547 17.494 17.0244 17.1848 17.3189C16.8756 17.6133 16.3744 17.6133 16.0652 17.3189L12.6215 14.0391C12.3123 13.7447 12.3123 13.2673 12.6215 12.9728Z" fill="#C6C5CD"/>
</svg>
