<svg width="25" height="28" viewBox="0 0 25 28" fill="none" xmlns="http://www.w3.org/2000/svg">
<path d="M12.5921 0.787032C10.8889 0.724899 9.56991 1.90172 8.14165 2.64117C6.19907 3.7927 4.1987 4.85499 2.29481 6.06621C1.0495 7.07838 0.47734 8.70712 0.608115 10.28C0.615366 13.0686 0.593667 15.858 0.61907 18.6462C0.78033 20.3345 1.95101 21.7673 3.45744 22.4736C5.87575 23.8615 8.27988 25.2753 10.707 26.647C12.25 27.3506 14.0766 27.0547 15.4415 26.1028C17.8527 24.7022 20.2788 23.3264 22.6806 21.9102C24.0622 20.9266 24.718 19.1964 24.5762 17.5387C24.569 14.7499 24.5907 11.9607 24.5653 9.17243C24.4038 7.48426 23.2334 6.05113 21.7268 5.34517C19.3084 3.9575 16.9039 2.54469 14.4768 1.1728C13.8894 0.899919 13.2368 0.788831 12.5922 0.786979L12.5921 0.787032ZM11.0735 7.80953H14.1113V20.0096H11.0735V7.80953ZM14.8962 10.4649H17.9326V20.0096H14.8962V10.4649ZM7.25125 15.444H10.2886V20.0096H7.25125V15.444V15.444Z" fill="#0D094E"/>
</svg>
