<svg width="32" height="26" viewBox="0 0 32 26" fill="none" xmlns="http://www.w3.org/2000/svg">
<path d="M10.323 25.2057C21.9067 25.2057 28.2426 15.6087 28.2426 7.28613C28.2426 7.01355 28.2426 6.74219 28.2242 6.47206C29.4567 5.58051 30.5207 4.47661 31.3663 3.21205C30.2169 3.72162 28.9976 4.05564 27.749 4.20294C29.0638 3.41594 30.0478 2.17795 30.5178 0.719463C29.2816 1.45313 27.9291 1.97014 26.5186 2.24817C25.5691 1.23847 24.3132 0.569869 22.9454 0.345837C21.5775 0.121805 20.174 0.354829 18.9519 1.00885C17.7299 1.66287 16.7574 2.70142 16.1851 3.9638C15.6127 5.22617 15.4724 6.64199 15.7858 7.99216C13.2819 7.86656 10.8323 7.21583 8.5962 6.08221C6.36006 4.94859 4.38729 3.35742 2.80593 1.41198C2.00056 2.79845 1.75389 4.43975 2.11615 6.0017C2.47841 7.56366 3.42236 8.92882 4.7558 9.81924C3.75349 9.78987 2.773 9.51948 1.89731 9.03094V9.11076C1.89771 10.5648 2.40106 11.974 3.32199 13.0993C4.24292 14.2245 5.52473 14.9966 6.95001 15.2845C6.02281 15.5374 5.04997 15.5744 4.10625 15.3926C4.50886 16.6439 5.29242 17.7381 6.34738 18.5223C7.40234 19.3065 8.67597 19.7414 9.99023 19.7663C8.68443 20.7926 7.18908 21.5515 5.58972 21.9994C3.99037 22.4474 2.31839 22.5756 0.669434 22.3767C3.54961 24.2249 6.9008 25.2053 10.323 25.2008" fill="white"/>
</svg>
