<svg width="23" height="19" viewBox="0 0 23 19" fill="none" xmlns="http://www.w3.org/2000/svg">
<path d="M20.9201 0.0281323C22.0083 0.0281323 22.8915 0.911307 22.8915 1.9995V16.0762C22.8915 16.5991 22.6838 17.1005 22.3141 17.4702C21.9444 17.8399 21.443 18.0476 20.9201 18.0476H12.7553C12.6592 18.0477 12.5632 18.0409 12.468 18.0273V0.0495353C12.5631 0.0355619 12.6591 0.0284096 12.7553 0.0281323H20.9201ZM18.5759 6.12361C18.5058 5.98317 18.3979 5.86504 18.2644 5.78247C18.1309 5.69991 17.977 5.65617 17.82 5.65617C17.663 5.65617 17.5092 5.69991 17.3757 5.78247C17.2421 5.86504 17.1343 5.98317 17.0641 6.12361L14.5295 11.1929C14.465 11.3216 14.4345 11.4647 14.4408 11.6086C14.4472 11.7525 14.4902 11.8924 14.5658 12.015C14.6414 12.1375 14.7471 12.2388 14.8729 12.309C14.9986 12.3792 15.1402 12.4161 15.2843 12.4162H20.3535C20.4977 12.4165 20.6396 12.3799 20.7657 12.3098C20.8917 12.2397 20.9977 12.1386 21.0736 12.0159C21.1495 11.8933 21.1927 11.7533 21.1992 11.6092C21.2057 11.4651 21.1751 11.3218 21.1105 11.1929L18.5759 6.12361ZM10.5023 0.0258789C10.5969 0.0258789 10.6893 0.0326381 10.7794 0.0450296V18.0251C10.6893 18.0375 10.5969 18.0442 10.5023 18.0442H2.33856C1.81572 18.0442 1.31429 17.8365 0.944589 17.4668C0.574885 17.0971 0.367188 16.5957 0.367188 16.0728V1.99725C0.367188 0.907927 1.24924 0.0258789 2.33856 0.0258789H10.5023ZM6.18442 6.12361C6.1143 5.98317 6.00642 5.86504 5.87291 5.78247C5.7394 5.69991 5.58552 5.65617 5.42854 5.65617C5.27156 5.65617 5.11769 5.69991 4.98417 5.78247C4.85066 5.86504 4.74279 5.98317 4.67266 6.12361L2.13804 11.1929C2.07352 11.3216 2.04298 11.4647 2.04934 11.6086C2.05569 11.7525 2.09872 11.8924 2.17434 12.015C2.24997 12.1375 2.35567 12.2388 2.48141 12.309C2.60716 12.3792 2.74877 12.4161 2.8928 12.4162H7.96204C8.10626 12.4165 8.24814 12.3799 8.3742 12.3098C8.50025 12.2397 8.60626 12.1386 8.68215 12.0159C8.75804 11.8933 8.80127 11.7533 8.80772 11.6092C8.81418 11.4651 8.78365 11.3218 8.71904 11.1929L6.18442 6.12361Z" fill="#0D094E"/>
</svg>
